<svg xmlns="http://www.w3.org/2000/svg" xml:space="preserve" viewBox="0 0 63.78 63.78"><path fill="#EB6143" d="M37.382 54.592c1.421 1.204 3.23 2.426 5.102 3.575a77.418 77.418 0 0 0 4.563-2.491c-1.157-.128-2.822-.315-4.462-.499l-1.283-.145c-1.695-.191-3.024-.341-3.92-.44M39.036 49.174c-4.165-.629-5.747-.864-5.837-.867l-.381-.06c.34 1.18.957 2.349 1.852 3.51 1.053.168 4.749.801 8.245 1.404l3.654.63 2.681.462c.141-.1.312-.207.441-.305 1.032-.777 1.878-1.747 2.563-2.778-1.913-.284-5.366-.806-8.796-1.326l-1.566-.237-2.856-.433zM33.188 42.777c-.408.994-.655 1.979-.697 2.952 1.872.323 6.76 1.187 11.314 1.994l4.778.847 4.658.826c.56-1.236.876-2.463.949-3.526-2.178-.319-6.022-.885-9.845-1.448l-4.263-.629-6.894-1.016M40.105 35.803c1.266.268 3.391.738 5.454 1.197l1.276.284c1.594.355 2.822.628 3.749.832-1.771-1.781-3.948-3.345-5.985-4.708-.465.251-.967.514-1.517.799a90.774 90.774 0 0 0-2.977 1.596M34.856 39.828c-.117.156-.19.308-.298.463 1.343.227 5.839 1.065 10.157 1.872l1.049.196c4.027.752 6.911 1.291 8.286 1.539-.27-1.305-.859-2.528-1.668-3.671l-7.168-1.117-8.244-1.286c-.844.637-1.59 1.305-2.114 2.004M35.442 63.57a31.719 31.719 0 0 0 8.676-2.229c-.568-.327-1.138-.656-1.719-1.003a163.033 163.033 0 0 1-6.957 3.232"/><path fill="#EB6143" d="M63.78 31.89c0-12.963-7.747-24.097-18.853-29.083l-.933 1.063c4.242 3.164 8.439 6.482 10.453 9.21 2.948 3.995 2.553 9.483-.961 13.346-1.966 2.161-4.579 4.307-7.094 5.905 4.434 3.038 9.559 7.242 9.727 12.837.093 3.069-1.692 7.591-5.283 10.298-1.559 1.175-3.851 2.509-6.427 3.852.614.358 1.217.703 1.803 1.036C56.623 55.105 63.78 44.345 63.78 31.89M42.464 2.733l.599-.68c-.89-.334-1.795-.63-2.721-.884l.711.524 1.411 1.04"/><path fill="#FFF" d="M42.4 60.338c.581.348 1.151.676 1.718 1.003.716-.297 1.406-.64 2.094-.987a168.08 168.08 0 0 1-1.803-1.037 110.1 110.1 0 0 1-2.009 1.021M41.201 4.163l.652-.74.61-.69c-.472-.349-.946-.699-1.411-1.04l-.711-.525a31.778 31.778 0 0 0-4.356-.876c1.209.92 2.544 1.903 3.941 2.932l1.275.939M42.732 5.299c1.315.979 2.617 1.971 3.853 2.951-.998.244-2.614.66-4.158 1.06l.338 2.024 5.994-1.306c1.104.941 2.079 1.849 2.894 2.711l-8.355 1.786.349 2.092 9.648-1.786c.647 1.062 1.057 2.218 1.175 3.414l-10.26 1.742.359 2.152.444-.062c4.926-.693 8.213-1.153 9.298-1.288a9.083 9.083 0 0 1-1.45 3.348L45.13 25.5l.348 2.086.501-.058c1.819-.21 3.236-.374 4.184-.481-1.711 1.566-3.654 3.031-5.5 4.124-.192.113-.391.254-.58.359-.383.213-.826.445-1.289.686l-.586.304c-2.929 1.518-6.94 3.596-8.871 6.167-4.405 5.867-3.543 11.776 2.493 17.088 1.299 1.144 2.941 2.29 4.656 3.381.678-.329 1.346-.659 1.998-.989-1.872-1.149-3.681-2.371-5.102-3.575l3.92.44 1.283.145.33-2.016c-3.496-.602-7.191-1.236-8.245-1.404-.894-1.161-1.512-2.33-1.851-3.509l.38.059c.09.003 1.672.239 5.837.868l2.857.432 1.565.237.347-2.12c-4.554-.807-9.442-1.671-11.314-1.994.042-.973.289-1.958.697-2.952.384.055 1.767.259 6.894 1.016l4.263.628.37-2.259c-4.318-.807-8.813-1.645-10.157-1.872.109-.155.182-.307.299-.463.523-.698 1.269-1.366 2.114-2.004l8.244 1.286.345-2.11c-2.063-.459-4.188-.93-5.454-1.197a87.927 87.927 0 0 1 2.976-1.596c.551-.286 1.052-.548 1.517-.799.135-.073.281-.149.406-.219.453-.251.922-.564 1.387-.859 2.515-1.597 5.128-3.744 7.094-5.904 3.514-3.864 3.91-9.352.961-13.347-2.014-2.728-6.21-6.045-10.453-9.21l-.718.812-.544.618"/><path fill="#C9CACA" d="m41.854 3.423-.652.74c-4.221 4.783-7.686 8.86-8.296 10.805-1.043 3.326-.871 6.671.472 9.177 1.392 2.594 3.19 3.823 5.678 5.524.52.356 1.078.736 1.678 1.161.601.426 1.306.891 2.06 1.385.464-.241.906-.473 1.289-.686.19-.105.388-.245.58-.359l-.594-.391c-.826-.542-1.588-1.041-2.237-1.5-.567-.4-1.088-.757-1.583-1.095 1.274-.142 3.337-.38 5.23-.599L45.13 25.5c-1.969.362-3.892.718-5.207.961l-1.675.309c-1.301-.968-2.262-1.903-3.067-3.325 1.364-.177 5.508-.759 9.388-1.305l-.36-2.152-1.413.24c-2.429.421-4.685.81-6.18 1.062l-2.176.366c-.269-1.009-.327-2.128-.237-3.291l9.444-1.748-.35-2.093-3.046.651-3.57.775c-.91.197-1.633.351-2.162.462.071-.293.106-.582.198-.876.189-.601.873-1.629 1.789-2.839l6.259-1.364-.338-2.023-1.285.333a689.75 689.75 0 0 1-2.772.716 220.13 220.13 0 0 1 4.361-5.061l.545-.616.718-.812c.339-.385.646-.735.932-1.064a31.799 31.799 0 0 0-1.863-.754l-.6.681-.609.69M44.409 59.317c2.576-1.342 4.868-2.677 6.427-3.851 3.591-2.707 5.376-7.23 5.283-10.298-.168-5.596-5.293-9.8-9.727-12.838-.465.295-.934.608-1.387.859-.125.07-.272.146-.406.219 2.037 1.363 4.214 2.927 5.985 4.708-.926-.204-2.155-.477-3.749-.832L45.56 37l-.345 2.109 7.167 1.117c.81 1.143 1.398 2.366 1.668 3.671-1.375-.248-4.259-.787-8.285-1.539l-1.05-.196-.37 2.259c3.823.564 7.667 1.13 9.845 1.448-.073 1.064-.389 2.291-.949 3.526l-4.658-.825-4.778-.847-.347 2.12c3.43.52 6.883 1.043 8.796 1.326-.685 1.032-1.531 2.002-2.563 2.779-.129.097-.3.205-.44.305l-2.682-.462-3.654-.631-.33 2.016c1.64.184 3.304.371 4.462.499a77.74 77.74 0 0 1-4.563 2.491c-.652.33-1.321.66-1.998.989a175.454 175.454 0 0 1-10.23 4.542c.545.027 1.082.082 1.634.082 1.202 0 2.385-.08 3.552-.209a164.306 164.306 0 0 0 6.958-3.232c.684-.339 1.355-.679 2.009-1.021"/><path fill="#EB6143" d="m45.979 27.528-.5.058c-1.894.219-3.956.457-5.23.599.495.338 1.016.695 1.582 1.095.65.459 1.412.958 2.238 1.5l.594.391c1.846-1.094 3.789-2.558 5.5-4.124-.947.107-2.365.271-4.184.481M54.311 20.789c-1.084.135-4.371.595-9.298 1.288l-.443.062c-3.88.547-8.024 1.129-9.388 1.306.805 1.422 1.766 2.357 3.067 3.325l1.675-.309c1.314-.243 3.238-.599 5.207-.961l7.731-1.363a9.13 9.13 0 0 0 1.449-3.348M42.732 5.299a217.69 217.69 0 0 0-4.361 5.061c.666-.17 1.564-.403 2.772-.717l1.284-.333c1.544-.4 3.16-.816 4.158-1.06a158.213 158.213 0 0 0-3.853-2.951M48.759 10.027l-5.994 1.306-6.259 1.364c-.916 1.21-1.599 2.238-1.788 2.839-.092.294-.128.583-.198.876.529-.111 1.252-.265 2.162-.462l3.569-.775 3.047-.651 8.356-1.785c-.816-.863-1.791-1.771-2.895-2.712M53.295 14.83l-9.648 1.787-9.444 1.748c-.089 1.163-.032 2.283.237 3.291l2.176-.366c1.495-.253 3.751-.642 6.18-1.063l1.413-.24 10.261-1.743c-.118-1.196-.528-2.352-1.175-3.414"/><path fill="#FDD23E" d="m42.208 32.52.586-.305a74.648 74.648 0 0 1-2.061-1.384c-.599-.425-1.158-.806-1.677-1.162-2.489-1.701-4.286-2.929-5.678-5.524-1.344-2.506-1.516-5.851-.473-9.177.61-1.945 4.076-6.021 8.296-10.805l-1.274-.939A307.471 307.471 0 0 1 35.985.292C34.641.12 33.281 0 31.89 0 14.278 0 0 14.278 0 31.89a31.665 31.665 0 0 0 3.589 14.688V32.997c0-2.388 1.78-4.347 4.08-4.67V18.011a4.74 4.74 0 0 1 4.736-4.736h17.011v1.836a2.904 2.904 0 0 0-2.9 2.9 2.904 2.904 0 0 0 2.9 2.901h.918v19.116h-4.081v14.985H10.008c5.345 5.044 12.413 8.286 20.248 8.684a174.115 174.115 0 0 0 10.23-4.542c-1.716-1.091-3.357-2.237-4.656-3.38-6.036-5.313-6.898-11.221-2.493-17.088 1.931-2.571 5.942-4.649 8.871-6.167"/><path fill="#FFF" d="M26.253 40.028h4.081V20.912h-.918a2.904 2.904 0 0 1-2.9-2.901c0-1.598 1.301-2.9 2.9-2.9v-1.836H12.405a4.74 4.74 0 0 0-4.736 4.736v10.316c-2.3.323-4.08 2.282-4.08 4.67v13.581c1.652 3.17 3.843 6.004 6.419 8.435h16.245V40.028z"/><path fill="#1BB8CE" d="M28.498 22.748H12.405a4.718 4.718 0 0 1-2.9-.993v6.506h15.83v1.836c-1.599 0-2.9 1.301-2.9 2.9s1.301 2.9 2.9 2.9h.918v2.295h2.245V22.748z"/><path fill="#C9CACA" d="M18.709 18.929v-1.836h6.069a4.718 4.718 0 0 1 .895-1.982H12.405c-1.598 0-2.9 1.301-2.9 2.9s1.302 2.9 2.9 2.9h13.268a4.718 4.718 0 0 1-.895-1.982h-6.069zM14.628 33.915v-1.836h6.069a4.718 4.718 0 0 1 .895-1.982H8.325c-1.598 0-2.9 1.301-2.9 2.9s1.302 2.9 2.9 2.9h13.267a4.718 4.718 0 0 1-.895-1.982h-6.069z"/><path fill="#1BB8CE" d="M24.417 53.177V37.733H8.325a4.718 4.718 0 0 1-2.9-.993v12.943c.829 1.232 1.767 2.379 2.755 3.479.049.003.096.015.145.015h16.092z"/></svg>